<svg width="164" height="94" viewBox="0 0 164 94" fill="none" xmlns="http://www.w3.org/2000/svg">
<g id="Logo Stars News sem slogan 1">
<g id="Mask group">
<mask id="mask0_412_922" style="mask-type:alpha" maskUnits="userSpaceOnUse" x="0" y="13" width="41" height="65">
<g id="Group">
<path id="Vector" d="M40.4126 13.2229H0V77.9263H40.4126V13.2229Z" fill="#D9D9D9"/>
</g>
</mask>
<g mask="url(#mask0_412_922)">
<g id="Group_2">
<path id="Vector_2" d="M90.9667 41.2859C85.5 32.1614 69.5389 21.6212 38.2492 36.0734C6.95933 50.5257 1.46564 64.1328 11.4015 65.9437" stroke="white"/>
<path id="Vector_3" d="M94.2789 39.9044C88.7574 30.8189 72.7333 20.3916 41.531 35.0644C10.3287 49.7373 4.9168 63.3828 14.8633 65.1235" stroke="white"/>
<path id="Vector_4" d="M98.0383 39.1402C92.5168 30.0547 76.4927 19.6273 45.2904 34.3002C14.0881 48.9731 8.6762 62.6186 18.6227 64.3592" stroke="white"/>
</g>
</g>
</g>
<path id="Vector_5" d="M14.2149 59.5852L15.56 64.0737H19.913L16.3914 66.8478L17.7365 71.3363L14.2149 68.5622L10.6932 71.3363L12.0384 66.8478L8.51672 64.0737H12.8697L14.2149 59.5852Z" fill="white"/>
<path id="Vector_6" d="M46.3805 75.8375C42.2453 75.8375 38.251 75.328 34.3977 74.309C30.5444 73.2901 27.3725 71.9655 24.882 70.3351L30.239 57.1907C32.5885 58.6681 35.1966 59.8654 38.063 60.7825C40.9765 61.6486 43.796 62.0816 46.5215 62.0816C48.1192 62.0816 49.3645 61.9797 50.2573 61.7759C51.1971 61.5212 51.8785 61.19 52.3014 60.7825C52.7244 60.3239 52.9358 59.789 52.9358 59.1776C52.9358 58.2096 52.4424 57.4454 51.4556 56.885C50.4688 56.3246 49.153 55.866 47.5083 55.5094C45.9106 55.1018 44.1484 54.6942 42.2218 54.2866C40.2951 53.8281 38.345 53.2422 36.3714 52.529C34.4447 51.8157 32.659 50.8732 31.0143 49.7014C29.4166 48.5296 28.1244 47.0011 27.1375 45.1161C26.1507 43.1801 25.6573 40.7855 25.6573 37.9325C25.6573 34.6209 26.5032 31.615 28.1949 28.9148C29.9335 26.1636 32.4946 23.9728 35.8779 22.3425C39.3083 20.7122 43.561 19.897 48.6361 19.897C51.9725 19.897 55.2619 20.2791 58.5043 21.0434C61.7467 21.8076 64.6602 22.9794 67.2447 24.5587L62.2401 37.6268C59.7966 36.3022 57.4235 35.3087 55.1209 34.6464C52.8653 33.984 50.6567 33.6529 48.4951 33.6529C46.8974 33.6529 45.6287 33.8057 44.6888 34.1114C43.749 34.4171 43.0676 34.8247 42.6447 35.3342C42.2688 35.8436 42.0808 36.404 42.0808 37.0154C42.0808 37.9325 42.5742 38.6712 43.561 39.2316C44.5479 39.7411 45.8401 40.1742 47.4378 40.5308C49.0825 40.8874 50.8682 41.2695 52.7948 41.6771C54.7685 42.0847 56.7186 42.6451 58.6453 43.3584C60.5719 44.0717 62.3341 45.0142 63.9318 46.186C65.5765 47.3578 66.8923 48.8862 67.8791 50.7713C68.8659 52.6563 69.3593 54.9999 69.3593 57.802C69.3593 61.0627 68.49 64.0686 66.7513 66.8198C65.0596 69.52 62.5221 71.7107 59.1387 73.392C55.7553 75.0223 51.5026 75.8375 46.3805 75.8375Z" fill="white"/>
<path id="Vector_7" d="M47.3438 24.1766L52.065 39.9304H67.3433L54.9829 49.6667L59.7042 65.4205L47.3438 55.6841L34.9834 65.4205L39.7046 49.6667L27.3442 39.9304H42.6226L47.3438 24.1766Z" fill="white"/>
<path id="Vector_8" d="M76.8709 44.5557V27.4347H70.6093V21.3745H90.3409V27.4347H84.0793V44.5557H76.8709ZM88.818 44.5557L98.1645 21.3745H105.251L114.597 44.5557H107.145L100.242 25.0835H103.052L96.1486 44.5557H88.818ZM94.377 40.5155L96.2097 34.8858H106.045L107.878 40.5155H94.377ZM115.748 44.5557V21.3745H126.041C128.037 21.3745 129.758 21.7278 131.203 22.4342C132.67 23.1407 133.8 24.1563 134.594 25.4809C135.388 26.7834 135.785 28.3289 135.785 30.1171C135.785 31.9054 135.388 33.4509 134.594 34.7534C133.8 36.0339 132.67 37.0162 131.203 37.7007C129.758 38.3851 128.037 38.7273 126.041 38.7273H119.749L122.957 35.515V44.5557H115.748ZM128.546 44.5557L123.292 36.1111H130.929L136.243 44.5557H128.546ZM122.957 36.376L119.749 32.8326H125.583C126.581 32.8326 127.314 32.5899 127.783 32.1041C128.271 31.6183 128.516 30.956 128.516 30.1171C128.516 29.2783 128.271 28.616 127.783 28.1302C127.314 27.6444 126.581 27.4016 125.583 27.4016H119.749L122.957 23.8582V36.376ZM146.479 45.0855C144.687 45.0855 142.957 44.8647 141.287 44.4232C139.617 43.9817 138.242 43.4076 137.163 42.7012L139.485 37.0052C140.503 37.6454 141.633 38.1643 142.875 38.5617C144.137 38.9369 145.359 39.1247 146.54 39.1247C147.233 39.1247 147.772 39.0806 148.159 38.9922C148.566 38.8819 148.862 38.7382 149.045 38.5617C149.228 38.363 149.32 38.1312 149.32 37.8663C149.32 37.4467 149.106 37.1155 148.678 36.8728C148.251 36.63 147.681 36.4313 146.968 36.2767C146.276 36.1002 145.512 35.9234 144.677 35.7468C143.842 35.5481 142.997 35.2942 142.142 34.9852C141.307 34.6762 140.533 34.2676 139.821 33.7599C139.128 33.2522 138.568 32.5899 138.141 31.7729C137.713 30.9341 137.499 29.8963 137.499 28.66C137.499 27.2251 137.866 25.9224 138.599 24.7523C139.352 23.5602 140.462 22.6108 141.928 21.9044C143.415 21.1979 145.257 20.8447 147.457 20.8447C148.902 20.8447 150.328 21.0102 151.733 21.3414C153.138 21.6726 154.4 22.1803 155.52 22.8647L153.352 28.5276C152.293 27.9536 151.265 27.5231 150.267 27.236C149.289 26.9489 148.332 26.8055 147.396 26.8055C146.703 26.8055 146.153 26.8718 145.746 27.0042C145.339 27.1367 145.044 27.3132 144.86 27.5341C144.698 27.7549 144.616 27.9977 144.616 28.2626C144.616 28.66 144.83 28.9802 145.257 29.223C145.685 29.4439 146.245 29.6313 146.937 29.786C147.65 29.9406 148.424 30.1062 149.259 30.2827C150.114 30.4592 150.959 30.7023 151.794 31.0113C152.629 31.3203 153.392 31.7289 154.085 32.2365C154.797 32.7442 155.368 33.4066 155.795 34.2235C156.223 35.0404 156.437 36.0558 156.437 37.2702C156.437 38.6832 156.06 39.9857 155.307 41.1778C154.574 42.3479 153.474 43.2973 152.008 44.0258C150.542 44.7322 148.699 45.0855 146.479 45.0855Z" fill="white"/>
<path id="Vector_9" d="M72.0942 74.1053V52.7073H77.564L87.6014 65.7295H85.0639V52.7073H91.5487V74.1053H86.0789L76.0415 61.0831H78.5791V74.1053H72.0942ZM100.845 60.6551H109.642V65.8518H100.845V60.6551ZM101.296 68.6641H111.164V74.1053H94.7547V52.7073H110.798V58.1485H101.296V68.6641ZM118.441 74.1053L112.125 52.7073H118.977L124.08 70.7733H120.64L126.054 52.7073H132.172L137.219 70.7733H133.92L139.249 52.7073H145.564L139.249 74.1053H132.115L127.999 59.3101H129.916L125.574 74.1053H118.441ZM154.401 74.5944C152.747 74.5944 151.149 74.3906 149.607 73.983C148.066 73.5754 146.797 73.0456 145.801 72.3934L147.944 67.1357C148.884 67.7266 149.927 68.2055 151.074 68.5724C152.239 68.9188 153.367 69.092 154.457 69.092C155.096 69.092 155.594 69.0513 155.951 68.9698C156.327 68.8679 156.6 68.7354 156.769 68.5724C156.938 68.389 157.023 68.175 157.023 67.9304C157.023 67.5432 156.825 67.2375 156.431 67.0134C156.036 66.7892 155.51 66.6058 154.852 66.4631C154.213 66.3001 153.508 66.1371 152.737 65.974C151.966 65.7906 151.186 65.5563 150.397 65.271C149.626 64.9857 148.912 64.6087 148.254 64.1399C147.615 63.6712 147.098 63.0598 146.703 62.3058C146.309 61.5314 146.111 60.5736 146.111 59.4324C146.111 58.1077 146.45 56.9054 147.126 55.8253C147.822 54.7248 148.846 53.8485 150.2 53.1964C151.572 52.5443 153.273 52.2182 155.303 52.2182C156.637 52.2182 157.953 52.371 159.25 52.6767C160.547 52.9824 161.712 53.4511 162.746 54.0829L160.744 59.3101C159.767 58.7802 158.818 58.3829 157.897 58.1179C156.995 57.853 156.111 57.7205 155.246 57.7205C154.607 57.7205 154.1 57.7817 153.724 57.9039C153.348 58.0262 153.075 58.1893 152.906 58.393C152.756 58.5968 152.681 58.821 152.681 59.0656C152.681 59.4324 152.878 59.7279 153.273 59.952C153.668 60.1558 154.184 60.3291 154.824 60.4717C155.481 60.6144 156.196 60.7672 156.966 60.9302C157.756 61.0933 158.536 61.3174 159.307 61.6027C160.077 61.8881 160.782 62.2651 161.421 62.7338C162.079 63.2025 162.605 63.8139 163 64.5679C163.395 65.3219 163.592 66.2594 163.592 67.3802C163.592 68.6845 163.244 69.8868 162.549 70.9873C161.872 72.0674 160.857 72.9437 159.504 73.6162C158.151 74.2683 156.449 74.5944 154.401 74.5944Z" fill="white"/>
</g>
</svg>
