<svg width="198" height="366" viewBox="0 0 198 366" fill="none" xmlns="http://www.w3.org/2000/svg">
<path d="M95.4 295.8C77.8 295.8 60.8 293.8 44.4 289.8C28 285.8 14.5 280.6 3.9 274.2L26.7 222.6C36.7 228.4 47.8 233.1 60 236.7C72.4 240.1 84.4 241.8 96 241.8C102.8 241.8 108.1 241.4 111.9 240.6C115.9 239.6 118.8 238.3 120.6 236.7C122.4 234.9 123.3 232.8 123.3 230.4C123.3 226.6 121.2 223.6 117 221.4C112.8 219.2 107.2 217.4 100.2 216C93.4 214.4 85.9 212.8 77.7 211.2C69.5 209.4 61.2 207.1 52.8 204.3C44.6 201.5 37 197.8 30 193.2C23.2 188.6 17.7 182.6 13.5 175.2C9.3 167.6 7.2 158.2 7.2 147C7.2 134 10.8 122.2 18 111.6C25.4 100.8 36.3 92.2 50.7 85.8C65.3 79.4 83.4 76.2 105 76.2C119.2 76.2 133.2 77.7 147 80.7C160.8 83.7 173.2 88.3 184.2 94.5L162.9 145.8C152.5 140.6 142.4 136.7 132.6 134.1C123 131.5 113.6 130.2 104.4 130.2C97.6 130.2 92.2 130.8 88.2 132C84.2 133.2 81.3 134.8 79.5 136.8C77.9 138.8 77.1 141 77.1 143.4C77.1 147 79.2 149.9 83.4 152.1C87.6 154.1 93.1 155.8 99.9 157.2C106.9 158.6 114.5 160.1 122.7 161.7C131.1 163.3 139.4 165.5 147.6 168.3C155.8 171.1 163.3 174.8 170.1 179.4C177.1 184 182.7 190 186.9 197.4C191.1 204.8 193.2 214 193.2 225C193.2 237.8 189.5 249.6 182.1 260.4C174.9 271 164.1 279.6 149.7 286.2C135.3 292.6 117.2 295.8 95.4 295.8Z" fill="white"/>
<path d="M99.4999 93L119.594 154.843H184.62L132.013 193.064L152.107 254.907L99.4999 216.686L46.8932 254.907L66.9872 193.064L14.3804 154.843H79.4059L99.4999 93Z" fill="white"/>
</svg>
